<svg width="133" height="19" viewBox="0 0 133 19" fill="none" xmlns="http://www.w3.org/2000/svg">
<path d="M1.376 18C1.2 18 1.056 17.944 0.944 17.832C0.832 17.72 0.776 17.576 0.776 17.4V1.8C0.776 1.624 0.832 1.48 0.944 1.368C1.056 1.256 1.2 1.2 1.376 1.2H4.04C4.216 1.2 4.36 1.256 4.472 1.368C4.584 1.48 4.64 1.624 4.64 1.8V14.784H12.08C12.256 14.784 12.4 14.84 12.512 14.952C12.624 15.064 12.68 15.208 12.68 15.384V17.4C12.68 17.576 12.624 17.72 12.512 17.832C12.4 17.944 12.256 18 12.08 18H1.376ZM14.9574 18C14.7974 18 14.6614 17.944 14.5494 17.832C14.4374 17.72 14.3814 17.576 14.3814 17.4V6.12C14.3814 5.944 14.4374 5.8 14.5494 5.688C14.6614 5.576 14.7974 5.52 14.9574 5.52H17.3574C17.5334 5.52 17.6774 5.576 17.7894 5.688C17.9014 5.8 17.9574 5.944 17.9574 6.12V17.4C17.9574 17.576 17.9014 17.72 17.7894 17.832C17.6774 17.944 17.5334 18 17.3574 18H14.9574ZM14.8854 3.6C14.7254 3.6 14.5894 3.544 14.4774 3.432C14.3654 3.32 14.3094 3.176 14.3094 3V1.08C14.3094 0.903999 14.3654 0.759999 14.4774 0.647999C14.5894 0.52 14.7254 0.456 14.8854 0.456H17.4054C17.5814 0.456 17.7254 0.52 17.8374 0.647999C17.9654 0.759999 18.0294 0.903999 18.0294 1.08V3C18.0294 3.176 17.9654 3.32 17.8374 3.432C17.7254 3.544 17.5814 3.6 17.4054 3.6H14.8854ZM25.6473 18.24C24.6553 18.24 23.7993 18.128 23.0793 17.904C22.3753 17.664 21.7993 17.376 21.3513 17.04C20.9193 16.704 20.5913 16.368 20.3673 16.032C20.1593 15.68 20.0473 15.384 20.0313 15.144C20.0153 14.968 20.0713 14.824 20.1993 14.712C20.3273 14.6 20.4553 14.544 20.5833 14.544H22.9113C22.9593 14.544 23.0073 14.552 23.0553 14.568C23.1033 14.584 23.1513 14.624 23.1993 14.688C23.4073 14.832 23.6233 15 23.8473 15.192C24.0713 15.368 24.3273 15.52 24.6153 15.648C24.9193 15.776 25.2953 15.84 25.7433 15.84C26.2713 15.84 26.7193 15.736 27.0873 15.528C27.4553 15.304 27.6393 14.992 27.6393 14.592C27.6393 14.304 27.5513 14.064 27.3753 13.872C27.2153 13.68 26.9033 13.504 26.4393 13.344C25.9753 13.184 25.2873 13.008 24.3753 12.816C23.5113 12.624 22.7753 12.368 22.1673 12.048C21.5593 11.728 21.1033 11.328 20.7993 10.848C20.4953 10.352 20.3433 9.76 20.3433 9.072C20.3433 8.448 20.5353 7.848 20.9193 7.272C21.3193 6.696 21.9033 6.224 22.6713 5.856C23.4393 5.472 24.3993 5.28 25.5513 5.28C26.4313 5.28 27.1993 5.392 27.8553 5.616C28.5273 5.824 29.0873 6.096 29.5353 6.432C29.9833 6.752 30.3193 7.088 30.5433 7.44C30.7833 7.776 30.9113 8.072 30.9273 8.328C30.9433 8.488 30.8953 8.624 30.7833 8.736C30.6713 8.848 30.5433 8.904 30.3993 8.904H28.2633C28.1833 8.904 28.1113 8.896 28.0473 8.88C27.9833 8.848 27.9273 8.808 27.8793 8.76C27.6873 8.632 27.4873 8.488 27.2793 8.328C27.0873 8.152 26.8553 8 26.5833 7.872C26.3113 7.744 25.9593 7.68 25.5273 7.68C24.9993 7.68 24.5913 7.8 24.3033 8.04C24.0313 8.264 23.8953 8.552 23.8953 8.904C23.8953 9.128 23.9673 9.336 24.1113 9.528C24.2553 9.72 24.5513 9.896 24.9993 10.056C25.4473 10.216 26.1273 10.384 27.0393 10.56C28.1273 10.752 28.9913 11.04 29.6313 11.424C30.2713 11.808 30.7273 12.256 30.9993 12.768C31.2873 13.264 31.4313 13.8 31.4313 14.376C31.4313 15.128 31.2073 15.8 30.7593 16.392C30.3113 16.968 29.6553 17.424 28.7913 17.76C27.9433 18.08 26.8953 18.24 25.6473 18.24ZM39.4482 18C38.4562 18 37.6082 17.84 36.9042 17.52C36.2002 17.184 35.6642 16.672 35.2962 15.984C34.9442 15.296 34.7682 14.432 34.7682 13.392V8.352H32.8962C32.7202 8.352 32.5762 8.296 32.4642 8.184C32.3522 8.072 32.2962 7.928 32.2962 7.752V6.12C32.2962 5.944 32.3522 5.8 32.4642 5.688C32.5762 5.576 32.7202 5.52 32.8962 5.52H34.7682V1.56C34.7682 1.384 34.8242 1.24 34.9362 1.128C35.0642 1.016 35.2082 0.959999 35.3682 0.959999H37.7202C37.8962 0.959999 38.0402 1.016 38.1522 1.128C38.2642 1.24 38.3202 1.384 38.3202 1.56V5.52H41.3202C41.4802 5.52 41.6162 5.576 41.7282 5.688C41.8402 5.8 41.8962 5.944 41.8962 6.12V7.752C41.8962 7.928 41.8402 8.072 41.7282 8.184C41.6162 8.296 41.4802 8.352 41.3202 8.352H38.3202V13.104C38.3202 13.712 38.4242 14.192 38.6322 14.544C38.8562 14.88 39.2402 15.048 39.7842 15.048H41.5362C41.6962 15.048 41.8322 15.104 41.9442 15.216C42.0562 15.328 42.1122 15.464 42.1122 15.624V17.4C42.1122 17.576 42.0562 17.72 41.9442 17.832C41.8322 17.944 41.6962 18 41.5362 18H39.4482ZM49.5341 18.24C47.6941 18.24 46.2301 17.728 45.1421 16.704C44.0701 15.68 43.5021 14.192 43.4381 12.24C43.4381 12.112 43.4381 11.944 43.4381 11.736C43.4381 11.512 43.4381 11.336 43.4381 11.208C43.5021 9.976 43.7821 8.92 44.2781 8.04C44.7741 7.144 45.4701 6.464 46.3661 6C47.2621 5.52 48.3101 5.28 49.5101 5.28C50.8541 5.28 51.9741 5.56 52.8701 6.12C53.7821 6.664 54.4621 7.416 54.9101 8.376C55.3741 9.32 55.6061 10.408 55.6061 11.64V12.192C55.6061 12.352 55.5421 12.488 55.4141 12.6C55.3021 12.712 55.1661 12.768 55.0061 12.768H47.1581C47.1581 12.784 47.1581 12.816 47.1581 12.864C47.1581 12.896 47.1581 12.928 47.1581 12.96C47.1741 13.472 47.2701 13.944 47.4461 14.376C47.6381 14.792 47.9021 15.128 48.2381 15.384C48.5901 15.64 49.0061 15.768 49.4861 15.768C49.8861 15.768 50.2141 15.712 50.4701 15.6C50.7261 15.488 50.9341 15.352 51.0941 15.192C51.2701 15.032 51.3981 14.896 51.4781 14.784C51.6221 14.624 51.7341 14.528 51.8141 14.496C51.9101 14.448 52.0541 14.424 52.2461 14.424H54.7421C54.9021 14.424 55.0301 14.472 55.1261 14.568C55.2381 14.648 55.2861 14.768 55.2701 14.928C55.2541 15.184 55.1181 15.504 54.8621 15.888C54.6221 16.256 54.2621 16.624 53.7821 16.992C53.3021 17.344 52.7021 17.64 51.9821 17.88C51.2781 18.12 50.4621 18.24 49.5341 18.24ZM47.1581 10.584H51.8621V10.536C51.8621 9.96 51.7661 9.464 51.5741 9.048C51.3981 8.616 51.1341 8.28 50.7821 8.04C50.4301 7.8 50.0061 7.68 49.5101 7.68C49.0141 7.68 48.5901 7.8 48.2381 8.04C47.8861 8.28 47.6141 8.616 47.4221 9.048C47.2461 9.464 47.1581 9.96 47.1581 10.536V10.584ZM58.3411 18C58.1811 18 58.0451 17.944 57.9331 17.832C57.8211 17.72 57.7651 17.576 57.7651 17.4V6.12C57.7651 5.944 57.8211 5.8 57.9331 5.688C58.0451 5.576 58.1811 5.52 58.3411 5.52H60.6931C60.8691 5.52 61.0131 5.576 61.1251 5.688C61.2371 5.8 61.2931 5.944 61.2931 6.12V7.056C61.7091 6.544 62.2451 6.12 62.9011 5.784C63.5571 5.448 64.3571 5.28 65.3011 5.28C66.2451 5.28 67.0691 5.496 67.7731 5.928C68.4931 6.344 69.0531 6.96 69.4531 7.776C69.8691 8.576 70.0771 9.552 70.0771 10.704V17.4C70.0771 17.576 70.0131 17.72 69.8851 17.832C69.7731 17.944 69.6371 18 69.4771 18H66.9331C66.7571 18 66.6131 17.944 66.5011 17.832C66.3891 17.72 66.3331 17.576 66.3331 17.4V10.848C66.3331 10 66.1251 9.344 65.7091 8.88C65.3091 8.4 64.7171 8.16 63.9331 8.16C63.1811 8.16 62.5811 8.4 62.1331 8.88C61.6851 9.344 61.4611 10 61.4611 10.848V17.4C61.4611 17.576 61.4051 17.72 61.2931 17.832C61.1811 17.944 61.0451 18 60.8851 18H58.3411ZM73.5766 18C73.4166 18 73.2726 17.944 73.1446 17.832C73.0326 17.72 72.9766 17.576 72.9766 17.4V1.8C72.9766 1.624 73.0326 1.48 73.1446 1.368C73.2726 1.256 73.4166 1.2 73.5766 1.2H75.8086C76.0486 1.2 76.2246 1.264 76.3366 1.392C76.4646 1.52 76.5526 1.616 76.6006 1.68L81.0166 9.816L85.4806 1.68C85.5126 1.616 85.5846 1.52 85.6966 1.392C85.8246 1.264 86.0086 1.2 86.2486 1.2H88.4806C88.6566 1.2 88.8006 1.256 88.9126 1.368C89.0246 1.48 89.0806 1.624 89.0806 1.8V17.4C89.0806 17.576 89.0246 17.72 88.9126 17.832C88.8006 17.944 88.6566 18 88.4806 18H86.0326C85.8726 18 85.7366 17.944 85.6246 17.832C85.5126 17.72 85.4566 17.576 85.4566 17.4V7.704L82.4086 13.416C82.3286 13.56 82.2246 13.688 82.0966 13.8C81.9686 13.912 81.8006 13.968 81.5926 13.968H80.4646C80.2566 13.968 80.0886 13.912 79.9606 13.8C79.8326 13.688 79.7286 13.56 79.6486 13.416L76.6006 7.704V17.4C76.6006 17.576 76.5446 17.72 76.4326 17.832C76.3206 17.944 76.1846 18 76.0246 18H73.5766ZM97.8487 18.24C96.5207 18.24 95.4087 18.024 94.5127 17.592C93.6167 17.144 92.9287 16.512 92.4487 15.696C91.9847 14.88 91.7287 13.928 91.6807 12.84C91.6647 12.52 91.6567 12.16 91.6567 11.76C91.6567 11.344 91.6647 10.984 91.6807 10.68C91.7287 9.576 92.0007 8.624 92.4967 7.824C92.9927 7.008 93.6887 6.384 94.5847 5.952C95.4807 5.504 96.5687 5.28 97.8487 5.28C99.1127 5.28 100.193 5.504 101.089 5.952C101.985 6.384 102.681 7.008 103.177 7.824C103.673 8.624 103.945 9.576 103.993 10.68C104.025 10.984 104.041 11.344 104.041 11.76C104.041 12.16 104.025 12.52 103.993 12.84C103.945 13.928 103.681 14.88 103.201 15.696C102.737 16.512 102.057 17.144 101.161 17.592C100.265 18.024 99.1607 18.24 97.8487 18.24ZM97.8487 15.6C98.6327 15.6 99.2247 15.36 99.6247 14.88C100.025 14.384 100.241 13.664 100.273 12.72C100.289 12.48 100.297 12.16 100.297 11.76C100.297 11.36 100.289 11.04 100.273 10.8C100.241 9.872 100.025 9.16 99.6247 8.664C99.2247 8.168 98.6327 7.92 97.8487 7.92C97.0647 7.92 96.4647 8.168 96.0487 8.664C95.6487 9.16 95.4327 9.872 95.4007 10.8C95.3847 11.04 95.3767 11.36 95.3767 11.76C95.3767 12.16 95.3847 12.48 95.4007 12.72C95.4327 13.664 95.6487 14.384 96.0487 14.88C96.4647 15.36 97.0647 15.6 97.8487 15.6ZM110.943 18.24C110.143 18.24 109.431 18.112 108.807 17.856C108.183 17.584 107.655 17.2 107.223 16.704C106.791 16.192 106.463 15.592 106.239 14.904C106.015 14.2 105.879 13.424 105.831 12.576C105.815 12.272 105.807 12 105.807 11.76C105.807 11.504 105.815 11.232 105.831 10.944C105.863 10.112 105.991 9.352 106.215 8.664C106.455 7.976 106.783 7.384 107.199 6.888C107.631 6.376 108.159 5.984 108.783 5.712C109.423 5.424 110.143 5.28 110.943 5.28C111.775 5.28 112.487 5.424 113.079 5.712C113.671 5.984 114.159 6.344 114.543 6.792V1.56C114.543 1.384 114.599 1.24 114.711 1.128C114.823 1.016 114.967 0.959999 115.143 0.959999H117.615C117.775 0.959999 117.911 1.016 118.023 1.128C118.135 1.24 118.191 1.384 118.191 1.56V17.4C118.191 17.576 118.135 17.72 118.023 17.832C117.911 17.944 117.775 18 117.615 18H115.311C115.151 18 115.015 17.944 114.903 17.832C114.791 17.72 114.735 17.576 114.735 17.4V16.584C114.335 17.064 113.831 17.464 113.223 17.784C112.615 18.088 111.855 18.24 110.943 18.24ZM112.047 15.36C112.639 15.36 113.111 15.224 113.463 14.952C113.831 14.68 114.095 14.336 114.255 13.92C114.431 13.504 114.527 13.056 114.543 12.576C114.575 12.272 114.591 11.968 114.591 11.664C114.591 11.36 114.575 11.064 114.543 10.776C114.527 10.328 114.431 9.912 114.255 9.528C114.079 9.128 113.807 8.8 113.439 8.544C113.087 8.288 112.623 8.16 112.047 8.16C111.439 8.16 110.959 8.296 110.607 8.568C110.255 8.824 109.999 9.168 109.839 9.6C109.695 10.032 109.607 10.504 109.575 11.016C109.527 11.512 109.527 12.008 109.575 12.504C109.607 13.016 109.695 13.488 109.839 13.92C109.999 14.352 110.255 14.704 110.607 14.976C110.959 15.232 111.439 15.36 112.047 15.36ZM126.568 18.24C124.728 18.24 123.264 17.728 122.176 16.704C121.104 15.68 120.536 14.192 120.472 12.24C120.472 12.112 120.472 11.944 120.472 11.736C120.472 11.512 120.472 11.336 120.472 11.208C120.536 9.976 120.816 8.92 121.312 8.04C121.808 7.144 122.504 6.464 123.4 6C124.296 5.52 125.344 5.28 126.544 5.28C127.888 5.28 129.008 5.56 129.904 6.12C130.816 6.664 131.496 7.416 131.944 8.376C132.408 9.32 132.64 10.408 132.64 11.64V12.192C132.64 12.352 132.576 12.488 132.448 12.6C132.336 12.712 132.2 12.768 132.04 12.768H124.192C124.192 12.784 124.192 12.816 124.192 12.864C124.192 12.896 124.192 12.928 124.192 12.96C124.208 13.472 124.304 13.944 124.48 14.376C124.672 14.792 124.936 15.128 125.272 15.384C125.624 15.64 126.04 15.768 126.52 15.768C126.92 15.768 127.248 15.712 127.504 15.6C127.76 15.488 127.968 15.352 128.128 15.192C128.304 15.032 128.432 14.896 128.512 14.784C128.656 14.624 128.768 14.528 128.848 14.496C128.944 14.448 129.088 14.424 129.28 14.424H131.776C131.936 14.424 132.064 14.472 132.16 14.568C132.272 14.648 132.32 14.768 132.304 14.928C132.288 15.184 132.152 15.504 131.896 15.888C131.656 16.256 131.296 16.624 130.816 16.992C130.336 17.344 129.736 17.64 129.016 17.88C128.312 18.12 127.496 18.24 126.568 18.24ZM124.192 10.584H128.896V10.536C128.896 9.96 128.8 9.464 128.608 9.048C128.432 8.616 128.168 8.28 127.816 8.04C127.464 7.8 127.04 7.68 126.544 7.68C126.048 7.68 125.624 7.8 125.272 8.04C124.92 8.28 124.648 8.616 124.456 9.048C124.28 9.464 124.192 9.96 124.192 10.536V10.584Z" fill="url(#paint0_linear_401_6862)"/>
<defs>
<linearGradient id="paint0_linear_401_6862" x1="133.544" y1="13.6842" x2="0.808857" y2="12.5549" gradientUnits="userSpaceOnUse">
<stop offset="0.0526316" stop-color="#695FFC"/>
<stop offset="1" stop-color="#47D1CB"/>
</linearGradient>
</defs>
</svg>
