<?xml version="1.0" encoding="UTF-8"?>
<svg version="1.1" xmlns="http://www.w3.org/2000/svg" width="372" height="372">
<path d="M0 0 C1.69962891 0.57041016 1.69962891 0.57041016 3.43359375 1.15234375 C10.17218713 3.56568458 16.86910338 6.08651923 23.53125 8.703125 C26.37473875 9.81959994 29.18674906 10.84893991 32.09375 11.796875 C41.31792323 14.95251321 46.48319995 21.29455323 52.5 28.625 C53.74136719 30.11580078 53.74136719 30.11580078 55.0078125 31.63671875 C56.50487283 33.45602766 57.98879522 35.28625666 59.45703125 37.12890625 C61.88452055 40.09480618 64.49060236 42.85625609 67.1875 45.578125 C69.21890901 48.74615572 69.46990236 50.83645927 69.5 54.625 C68.3127302 58.33742222 66.67922382 61.79983794 65 65.3125 C64.12504865 67.16571328 63.25999452 69.02364076 62.40625 70.88671875 C62.01759766 71.70100342 61.62894531 72.51528809 61.22851562 73.35424805 C60.37693526 76.00858753 60.41910298 77.07468818 61.5 79.625 C62.90466247 81.51538707 62.90466247 81.51538707 64.7109375 83.3125 C65.37367676 84.00545166 66.03641602 84.69840332 66.71923828 85.41235352 C67.43063965 86.14252686 68.14204102 86.8727002 68.875 87.625 C70.33904547 89.15446582 71.80258494 90.68441616 73.265625 92.21484375 C73.98685547 92.96491699 74.70808594 93.71499023 75.45117188 94.48779297 C96.22434172 116.15704093 96.22434172 116.15704093 96.08984375 124.40625 C94.55206386 130.19074655 88.28196049 133.55125457 83.453125 136.4609375 C80.82773059 137.90966551 78.18873494 139.29822239 75.5 140.625 C75.86158872 147.48271717 76.43720634 154.28207039 77.26953125 161.09765625 C77.4089917 162.24250488 77.54845215 163.38735352 77.69213867 164.56689453 C77.97728978 166.8696546 78.27023112 169.17146543 78.5715332 171.47216797 C79.88957554 182.12614492 79.88957554 182.12614492 78.5 187.625 C75.39789628 191.39782885 72.28848133 194.31867983 67.31060791 194.86550903 C66.12480133 194.8588472 66.12480133 194.8588472 64.91503906 194.85205078 C64.01440735 194.85189972 63.11377563 194.85174866 62.18585205 194.85159302 C61.22217712 194.84127045 60.2585022 194.83094788 59.265625 194.8203125 C58.27246277 194.8174826 57.27930054 194.81465271 56.25604248 194.81173706 C53.08723856 194.80055143 49.91871835 194.77544962 46.75 194.75 C44.6002645 194.73996812 42.45052457 194.73084263 40.30078125 194.72265625 C35.03375754 194.70061741 29.76689904 194.66715584 24.5 194.625 C24.5013092 195.21925781 24.50261841 195.81351563 24.50396729 196.42578125 C24.509214 199.15885347 24.51243215 201.89192463 24.515625 204.625 C24.51771973 205.55957031 24.51981445 206.49414062 24.52197266 207.45703125 C24.54099728 229.22120367 24.54099728 229.22120367 19.5 234.625 C16.74402747 236.79040699 15.49051949 236.62417628 11.92578125 236.31445312 C7.30803391 235.6805936 2.91167525 234.50172513 -1.5625 233.21875 C-2.41979202 232.97805786 -3.27708405 232.73736572 -4.16035461 232.48937988 C-6.94189278 231.70699158 -9.7210082 230.91638097 -12.5 230.125 C-14.42460599 229.58031446 -16.3493304 229.03604719 -18.27416992 228.4921875 C-21.19248237 227.66748989 -24.11064086 226.84228277 -27.02812195 226.01464844 C-33.08884558 224.29716887 -39.15862402 222.61782496 -45.23828125 220.96875 C-47.41370577 220.37422845 -49.5888687 219.77876125 -51.76391602 219.18286133 C-53.11676681 218.81445898 -54.47059911 218.44963994 -55.82543945 218.08862305 C-71.23649272 213.97682206 -71.23649272 213.97682206 -75.03295898 208.35498047 C-76.54473086 205.54176145 -77.44166658 202.95404888 -78.3046875 199.8828125 C-78.7989624 198.18294189 -78.7989624 198.18294189 -79.30322266 196.44873047 C-79.83375244 194.61785889 -79.83375244 194.61785889 -80.375 192.75 C-83.65163755 181.70092263 -87.57484395 171.08588096 -92.125 160.5 C-92.40565308 159.84575043 -92.68630615 159.19150085 -92.97546387 158.51742554 C-94.07280759 155.96101786 -95.17128662 153.40510454 -96.27227783 150.8502655 C-108.8309895 121.62430715 -114.25489703 93.2059805 -102.5 62.625 C-98.77074765 53.56824429 -93.95507596 45.9553405 -87.5 38.625 C-86.84644531 37.81675781 -86.19289063 37.00851563 -85.51953125 36.17578125 C-74.05797184 22.47782 -56.31164109 10.80565019 -38.5 7.625 C-34.7788577 7.69521023 -32.90886054 8.41168146 -29.625 10.125 C-27.07596016 13.1238704 -27.12927294 14.90757042 -27.22412109 18.74853516 C-27.8190055 24.95112638 -29.35176979 31.00130685 -30.75 37.0625 C-31.07259636 38.49263574 -31.394288 39.92297584 -31.71508789 41.35351562 C-32.34634086 44.16243229 -32.98246986 46.9701622 -33.62353516 49.77685547 C-34.74975143 54.72154097 -35.84452071 59.67289129 -36.9375 64.625 C-37.45694201 66.95864703 -37.97828398 69.29186005 -38.5 71.625 C-37.51 71.295 -36.52 70.965 -35.5 70.625 C-33.16700175 70.58545766 -30.83291811 70.58098268 -28.5 70.625 C-28.40783203 69.9330957 -28.31566406 69.24119141 -28.22070312 68.52832031 C-26.67297537 57.6976654 -24.32610911 47.05992759 -22 36.375 C-21.59210237 34.48705379 -21.1845481 32.59903336 -20.77734375 30.7109375 C-18.82477507 21.67024718 -18.82477507 21.67024718 -18.00537109 17.95715332 C-17.65858042 16.35680652 -17.32631419 14.75326386 -17.00634766 13.14733887 C-16.84376465 12.35267212 -16.68118164 11.55800537 -16.51367188 10.73925781 C-16.37376831 10.03053528 -16.23386475 9.32181274 -16.08972168 8.59161377 C-15.02760829 5.04966019 -13.1686664 3.16954238 -10.5 0.625 C-6.44469482 -1.54918883 -4.3154328 -1.45007823 0 0 Z M1.5 21.625 C-0.06944547 28.85094074 -1.635701 36.07756749 -3.19970703 43.3046875 C-3.73249497 45.76480897 -4.2660216 48.22477058 -4.80029297 50.68457031 C-5.5667083 54.21377785 -6.33049274 57.74354581 -7.09375 61.2734375 C-7.33436157 62.37867767 -7.57497314 63.48391785 -7.82287598 64.62265015 C-8.04310425 65.64355743 -8.26333252 66.66446472 -8.49023438 67.71630859 C-8.68564819 68.61787689 -8.88106201 69.51944519 -9.08239746 70.44833374 C-9.56280596 72.58296904 -9.56280596 72.58296904 -9.5 74.625 C-8.016662 75.56215922 -6.4855331 76.42407474 -4.9375 77.25 C5.29248742 83.26084007 9.67968709 91.450058 13.1171875 102.6328125 C15.33858395 114.19314094 12.37143952 124.58583723 6.15625 134.3046875 C0.10804784 142.77787637 -8.10847533 148.22172092 -18.390625 150.33984375 C-29.04625127 151.78032656 -39.92935638 150.20789277 -48.875 143.875 C-57.84505569 136.34318109 -64.13238876 127.44763923 -65.5 115.625 C-65.83851613 108.90812438 -64.98620775 102.70756421 -63.671875 96.1328125 C-63.38645844 94.65468582 -63.38645844 94.65468582 -63.09527588 93.146698 C-62.48799332 90.01288618 -61.86904147 86.88150765 -61.25 83.75 C-60.84952647 81.68764238 -60.44978115 79.62514322 -60.05078125 77.5625 C-56.93713104 61.54621194 -56.93713104 61.54621194 -55.27539062 54.02246094 C-55.08414612 53.14999725 -54.89290161 52.27753357 -54.69586182 51.37863159 C-54.33625961 49.7520809 -53.96902367 48.12719143 -53.5927124 46.50442505 C-52.77896279 42.8255622 -52.40461498 40.22540893 -53.5 36.625 C-70.36534085 47.28295845 -82.48266179 61.91660674 -87.5 81.625 C-90.0415469 93.46790258 -89.70062173 107.96925989 -86.5 119.625 C-86.09201172 121.20474609 -86.09201172 121.20474609 -85.67578125 122.81640625 C-82.86238476 132.67898205 -78.88918458 142.00579619 -74.89318848 151.43725586 C-70.31517697 162.27565766 -66.46958944 173.23602188 -63.0234375 184.4921875 C-62.74209961 185.38131836 -62.46076172 186.27044922 -62.17089844 187.18652344 C-61.5 189.625 -61.5 189.625 -61.1015625 193.5703125 C-59.09268095 197.40188658 -58.02811162 197.47127292 -53.98828125 198.75 C-52.16418797 199.22138081 -50.3394805 199.69111816 -48.50738525 200.13037109 C-45.69767464 200.82269664 -42.92355345 201.62682846 -40.14254761 202.42553711 C-37.10580737 203.29504588 -34.06156659 204.13666085 -31.01733398 204.97949219 C-28.7002011 205.62148101 -26.38424385 206.26758665 -24.06835938 206.9140625 C-14.24995466 209.64467329 -4.39952179 212.20524832 5.5 214.625 C5.5093457 213.6462793 5.51869141 212.66755859 5.52832031 211.65917969 C5.56825458 208.02086209 5.63402134 204.38338709 5.70751953 200.74560547 C5.73570954 199.17247356 5.75693398 197.59920053 5.77099609 196.02587891 C5.79245442 193.76131044 5.83911348 191.49843496 5.890625 189.234375 C5.89185364 188.53318542 5.89308228 187.83199585 5.89434814 187.10955811 C5.99182615 183.84499069 6.27303691 181.93416817 8.22558594 179.27441406 C13.74299666 175.27316601 18.78904078 175.29434833 25.39453125 175.2109375 C26.81556404 175.18188828 26.81556404 175.18188828 28.26530457 175.1522522 C31.28094577 175.09263629 34.29662552 175.04614295 37.3125 175 C39.36134446 174.96180367 41.41017314 174.92275098 43.45898438 174.8828125 C48.47252762 174.78694947 53.48614603 174.70285193 58.5 174.625 C58.35914076 172.1221418 58.21396054 169.61965289 58.06640625 167.1171875 C58.02761353 166.42004639 57.9888208 165.72290527 57.94885254 165.00463867 C57.66171997 160.20799896 57.12742591 155.50576589 56.4375 150.75 C54.36934634 135.76772656 54.36934634 135.76772656 57.1015625 130.58984375 C59.86277906 127.17654837 62.34011964 125.70494018 66.25 123.75 C68.00570312 122.85667969 68.00570312 122.85667969 69.796875 121.9453125 C70.68890625 121.50960937 71.5809375 121.07390625 72.5 120.625 C68.43657362 114.94485065 64.03140999 109.83560738 59.1875 104.8125 C42.69380027 87.45848825 42.69380027 87.45848825 39.5 80.625 C39.71932684 75.78651688 41.57695178 71.54212888 43.4375 67.125 C44.47314531 64.6303799 45.49077554 62.13066073 46.5 59.625 C46.94730469 58.5525 47.39460937 57.48 47.85546875 56.375 C48.78736202 53.71283415 48.78736202 53.71283415 47.5859375 51.78125 C47.02132812 51.2346875 46.45671875 50.688125 45.875 50.125 C43.36153718 47.62113055 41.26236452 45.28165771 39.234375 42.3515625 C30.74680291 30.32736451 18.39345561 25.57870429 4.5 21.625 C3.51 21.625 2.52 21.625 1.5 21.625 Z " fill="#2C2DA8" transform="translate(193.5,70.375)"/>
<path d="M0 0 C0.95003906 0.83015625 1.90007812 1.6603125 2.87890625 2.515625 C27.63923666 24.47259861 44.71931397 51.52879717 53.25 83.5625 C53.61967896 84.94429443 53.61967896 84.94429443 53.99682617 86.35400391 C57.31754223 99.40041203 58.37916445 112.27877017 58.3125 125.6875 C58.31100952 126.43190338 58.30951904 127.17630676 58.3079834 127.94326782 C58.26638368 139.52335589 57.61658697 150.69087765 55 162 C54.73316406 163.24265625 54.46632813 164.4853125 54.19140625 165.765625 C44.19132667 207.54373524 16.67413064 243.88929399 -19.68603516 266.36010742 C-56.24063526 288.20818164 -100.54041258 295.23549218 -142 285 C-147.44627624 283.62362484 -152.73576449 281.95755491 -158 280 C-158.69287109 279.74347656 -159.38574219 279.48695313 -160.09960938 279.22265625 C-180.84095846 271.404907 -198.6585957 259.81530736 -214.53320312 244.41113281 C-215.86025953 243.1344374 -217.21759786 241.88940317 -218.578125 240.6484375 C-239.17001538 221.31863072 -253.3866487 193.22765119 -260 166 C-260.27457031 164.93265625 -260.54914063 163.8653125 -260.83203125 162.765625 C-262.52734057 155.65033662 -263.47602817 148.58482282 -264.1875 141.3125 C-264.2714502 140.457771 -264.35540039 139.60304199 -264.44189453 138.72241211 C-268.05246333 98.05087522 -255.20290986 54.52609295 -229 23 C-224.53172859 17.80042393 -219.9128445 12.78355912 -215 8 C-214.30777344 7.2575 -214.30777344 7.2575 -213.6015625 6.5 C-192.21443773 -16.03472659 -161.03518745 -29.25535643 -131 -35 C-129.76765625 -35.24492188 -128.5353125 -35.48984375 -127.265625 -35.7421875 C-83.31176513 -43.0015354 -33.47650134 -29.63310934 0 0 Z M-204.30249023 21.83447266 C-211.86519681 29.28047354 -218.27941175 37.07289952 -224 46 C-224.62003906 46.93585938 -225.24007812 47.87171875 -225.87890625 48.8359375 C-245.79971966 80.65576027 -251.48873096 121.59610289 -244 158 C-240.72760617 171.82438063 -235.99876144 184.65211545 -229 197 C-228.65211426 197.63341309 -228.30422852 198.26682617 -227.94580078 198.91943359 C-222.6335617 208.55926333 -216.46255034 216.92256712 -209 225 C-208.51047852 225.53866699 -208.02095703 226.07733398 -207.51660156 226.63232422 C-199.00929948 235.90776134 -189.53362101 243.15406826 -179 250 C-177.43958984 251.01900391 -177.43958984 251.01900391 -175.84765625 252.05859375 C-163.20965113 259.8424954 -149.37866797 264.62680538 -135 268 C-134.15953125 268.21398437 -133.3190625 268.42796875 -132.453125 268.6484375 C-115.04334074 272.90827833 -94.49097272 272.60048094 -77 269 C-76.35047363 268.87109375 -75.70094727 268.7421875 -75.03173828 268.609375 C-36.28543301 260.78951801 -4.19045106 238.38485128 17.99609375 205.78515625 C23.26434541 197.67819471 27.18419575 188.86019655 31 180 C31.45117188 178.96230469 31.90234375 177.92460937 32.3671875 176.85546875 C44.60026687 145.98828011 44.02374781 109.02632646 33 78 C32.66959717 77.05833984 32.66959717 77.05833984 32.33251953 76.09765625 C18.78546583 38.24067538 -8.04245728 10.50821807 -43.92041016 -6.93359375 C-54.79142871 -12.00264779 -66.33258564 -14.49035408 -78 -17 C-78.83015625 -17.19722656 -79.6603125 -17.39445312 -80.515625 -17.59765625 C-125.47693369 -24.87912605 -171.6418997 -9.37900949 -204.30249023 21.83447266 Z " fill="#2D2EA8" transform="translate(289,60)"/>
<path d="M0 0 C9.34959566 6.74424096 15.11878439 15.89622487 17.3125 27.3125 C18.32694283 40.61730785 14.92713411 51.19001382 6.49609375 61.54296875 C-1.37149036 70.01452901 -11.43992163 74.17523493 -22.875 74.6875 C-34.47627699 74.42969384 -43.70100721 70.25489339 -51.80859375 62.20703125 C-60.12114366 53.34539547 -64.14993697 43.8949439 -63.890625 31.6640625 C-63.52874707 27.47462952 -62.64366329 23.40180551 -61.6875 19.3125 C-61.0275 19.3125 -60.3675 19.3125 -59.6875 19.3125 C-59.501875 18.508125 -59.31625 17.70375 -59.125 16.875 C-55.65467292 8.27462418 -48.89828687 1.35475235 -40.57421875 -2.72265625 C-38.51753165 -3.65239365 -38.51753165 -3.65239365 -36.6875 -5.6875 C-25.6452728 -9.37111573 -9.62640618 -5.92394227 0 0 Z " fill="#0F97A2" transform="translate(190.6875,147.6875)"/>
<path d="M0 0 C3.63 0 7.26 0 11 0 C11 0.66 11 1.32 11 2 C21.89 2 32.78 2 44 2 C44 2.33 44 2.66 44 3 C38.53735686 3.02476266 33.07474657 3.04288974 27.61206055 3.05493164 C25.75463288 3.05995303 23.89720915 3.06677141 22.03979492 3.07543945 C19.36636379 3.08760117 16.69298504 3.09325033 14.01953125 3.09765625 C13.19226028 3.10281754 12.36498932 3.10797882 11.51264954 3.11329651 C7.5377466 3.1136812 3.88043167 2.98980119 0 2 C0 1.34 0 0.68 0 0 Z " fill="#1517A7" transform="translate(209,245)"/>
<path d="M0 0 C0.66 0.33 1.32 0.66 2 1 C0.625 3 0.625 3 -1 5 C-1.66 5 -2.32 5 -3 5 C-2.97679687 5.81984375 -2.95359375 6.6396875 -2.9296875 7.484375 C-2.91164062 8.56203125 -2.89359375 9.6396875 -2.875 10.75 C-2.85179687 11.81734375 -2.82859375 12.8846875 -2.8046875 13.984375 C-2.99512313 16.92470106 -3.47329896 18.52361878 -5 21 C-6.44753273 16.65740181 -6.52936942 12.53846052 -6 8 C-4.26460898 4.76060344 -2.57678866 2.57678866 0 0 Z " fill="#4649AA" transform="translate(254,196)"/>
<path d="M0 0 C0.99 0.33 1.98 0.66 3 1 C4 4 4 4 3.22265625 5.82421875 C2.1484375 7.54947917 1.07421875 9.27473958 0 11 C-0.66 10.67 -1.32 10.34 -2 10 C-1.34 6.7 -0.68 3.4 0 0 Z " fill="#2F3296" transform="translate(131,156)"/>
<path d="M0 0 C3.63 0 7.26 0 11 0 C11 0.66 11 1.32 11 2 C6.98195309 2.84098656 3.98196457 3.05404945 0 2 C0 1.34 0 0.68 0 0 Z " fill="#1E229B" transform="translate(209,245)"/>
<path d="M0 0 C0.66 0.33 1.32 0.66 2 1 C-1.17320782 4.53586014 -3.16743695 6.58578031 -8 7 C-7 4 -7 4 -5.125 2.8125 C-3 2 -3 2 0 2 C0 1.34 0 0.68 0 0 Z " fill="#4447A3" transform="translate(269,258)"/>
<path d="M0 0 C0 2.97294941 -0.48045732 4.782955 -1.4375 7.5625 C-1.83775391 8.74005859 -1.83775391 8.74005859 -2.24609375 9.94140625 C-3 12 -3 12 -4 14 C-4.66 14 -5.32 14 -6 14 C-5.57316761 12.41375765 -5.13303842 10.8310902 -4.6875 9.25 C-4.32205078 7.92742187 -4.32205078 7.92742187 -3.94921875 6.578125 C-2.97874669 3.94227495 -1.78994356 2.14592674 0 0 Z " fill="#5658AD" transform="translate(96,124)"/>
<path d="M0 0 C0.66 0 1.32 0 2 0 C2 0.66 2 1.32 2 2 C2.66 2 3.32 2 4 2 C4.66 4.31 5.32 6.62 6 9 C0.42857143 3.85714286 0.42857143 3.85714286 0 0 Z " fill="#4E50A4" transform="translate(117,274)"/>
<path d="M0 0 C1.90318884 2.85478326 2.4619099 4.41941308 3.125 7.6875 C3.29257813 8.49574219 3.46015625 9.30398437 3.6328125 10.13671875 C3.75398437 10.75160156 3.87515625 11.36648437 4 12 C1 8.375 1 8.375 1 5 C0.34 5 -0.32 5 -1 5 C-0.67 3.35 -0.34 1.7 0 0 Z " fill="#4B4FA5" transform="translate(127,244)"/>
<path d="M0 0 C6.64615385 1.47692308 6.64615385 1.47692308 8.4375 4.125 C8.7159375 5.053125 8.7159375 5.053125 9 6 C5.06326356 4.68775452 2.77280706 3.08089673 0 0 Z " fill="#4648B0" transform="translate(93,319)"/>
<path d="M0 0 C0.66 0.33 1.32 0.66 2 1 C0.68 2.65 -0.64 4.3 -2 6 C-3.32 5.67 -4.64 5.34 -6 5 C-4.02 3.35 -2.04 1.7 0 0 Z " fill="#5353B0" transform="translate(124,92)"/>
<path d="M0 0 C-3.00617269 3.00617269 -5.82381598 2.59585316 -10 3 C-10 2.34 -10 1.68 -10 1 C-3.375 -1.125 -3.375 -1.125 0 0 Z " fill="#5253A8" transform="translate(151,28)"/>
<path d="M0 0 C0 0.66 0 1.32 0 2 C-6.75 4.125 -6.75 4.125 -9 3 C-9 2.34 -9 1.68 -9 1 C-5.846632 0.29925156 -3.27275026 0 0 0 Z " fill="#5A5CAE" transform="translate(168,24)"/>
<path d="M0 0 C0 0.66 0 1.32 0 2 C1.32 2.33 2.64 2.66 4 3 C2.5199159 2.88637738 1.04089926 2.75877092 -0.4375 2.625 C-1.26121094 2.55539062 -2.08492187 2.48578125 -2.93359375 2.4140625 C-3.61550781 2.27742188 -4.29742187 2.14078125 -5 2 C-5.33 1.34 -5.66 0.68 -6 0 C-3 -1 -3 -1 0 0 Z " fill="#2324A3" transform="translate(196,284)"/>
<path d="M0 0 C2.2731701 2.19823043 3.87552628 4.00140342 5 7 C4.67 7.99 4.34 8.98 4 10 C3.34 9.67 2.68 9.34 2 9 C1.3671875 6.93359375 1.3671875 6.93359375 0.875 4.4375 C0.70742188 3.61121094 0.53984375 2.78492187 0.3671875 1.93359375 C0.24601562 1.29550781 0.12484375 0.65742187 0 0 Z " fill="#4F51A5" transform="translate(328,110)"/>
<path d="M0 0 C2 1 2 1 2 1 Z " fill="#000000" transform="translate(80,312)"/>
<path d="M0 0 C2 1 2 1 2 1 Z " fill="#000000" transform="translate(78,310)"/>
<path d="" fill="#000000" transform="translate(0,0)"/>
<path d="" fill="#000000" transform="translate(0,0)"/>
<path d="" fill="#000000" transform="translate(0,0)"/>
<path d="" fill="#000000" transform="translate(0,0)"/>
<path d="" fill="#000000" transform="translate(0,0)"/>
<path d="" fill="#000000" transform="translate(0,0)"/>
<path d="" fill="#000000" transform="translate(0,0)"/>
<path d="" fill="#000000" transform="translate(0,0)"/>
<path d="" fill="#000000" transform="translate(0,0)"/>
<path d="" fill="#000000" transform="translate(0,0)"/>
<path d="" fill="#000000" transform="translate(0,0)"/>
<path d="" fill="#000000" transform="translate(0,0)"/>
<path d="" fill="#000000" transform="translate(0,0)"/>
<path d="" fill="#000000" transform="translate(0,0)"/>
<path d="" fill="#000000" transform="translate(0,0)"/>
<path d="" fill="#000000" transform="translate(0,0)"/>
<path d="" fill="#000000" transform="translate(0,0)"/>
<path d="" fill="#000000" transform="translate(0,0)"/>
<path d="" fill="#000000" transform="translate(0,0)"/>
<path d="" fill="#000000" transform="translate(0,0)"/>
<path d="" fill="#000000" transform="translate(0,0)"/>
<path d="" fill="#000000" transform="translate(0,0)"/>
<path d="" fill="#000000" transform="translate(0,0)"/>
<path d="" fill="#000000" transform="translate(0,0)"/>
<path d="" fill="#000000" transform="translate(0,0)"/>
<path d="" fill="#000000" transform="translate(0,0)"/>
<path d="" fill="#000000" transform="translate(0,0)"/>
<path d="" fill="#000000" transform="translate(0,0)"/>
<path d="" fill="#000000" transform="translate(0,0)"/>
<path d="" fill="#000000" transform="translate(0,0)"/>
<path d="" fill="#000000" transform="translate(0,0)"/>
<path d="" fill="#000000" transform="translate(0,0)"/>
<path d="" fill="#000000" transform="translate(0,0)"/>
<path d="" fill="#000000" transform="translate(0,0)"/>
<path d="" fill="#000000" transform="translate(0,0)"/>
<path d="" fill="#000000" transform="translate(0,0)"/>
<path d="" fill="#000000" transform="translate(0,0)"/>
<path d="" fill="#000000" transform="translate(0,0)"/>
<path d="" fill="#000000" transform="translate(0,0)"/>
<path d="" fill="#000000" transform="translate(0,0)"/>
<path d="" fill="#000000" transform="translate(0,0)"/>
<path d="" fill="#000000" transform="translate(0,0)"/>
<path d="" fill="#000000" transform="translate(0,0)"/>
<path d="" fill="#000000" transform="translate(0,0)"/>
<path d="" fill="#000000" transform="translate(0,0)"/>
<path d="" fill="#000000" transform="translate(0,0)"/>
<path d="" fill="#000000" transform="translate(0,0)"/>
<path d="" fill="#000000" transform="translate(0,0)"/>
<path d="" fill="#000000" transform="translate(0,0)"/>
<path d="" fill="#000000" transform="translate(0,0)"/>
<path d="" fill="#000000" transform="translate(0,0)"/>
<path d="" fill="#000000" transform="translate(0,0)"/>
<path d="" fill="#000000" transform="translate(0,0)"/>
<path d="" fill="#000000" transform="translate(0,0)"/>
<path d="" fill="#000000" transform="translate(0,0)"/>
<path d="" fill="#000000" transform="translate(0,0)"/>
<path d="" fill="#000000" transform="translate(0,0)"/>
<path d="" fill="#000000" transform="translate(0,0)"/>
<path d="" fill="#000000" transform="translate(0,0)"/>
<path d="" fill="#000000" transform="translate(0,0)"/>
<path d="" fill="#000000" transform="translate(0,0)"/>
<path d="" fill="#000000" transform="translate(0,0)"/>
<path d="" fill="#000000" transform="translate(0,0)"/>
<path d="" fill="#000000" transform="translate(0,0)"/>
<path d="" fill="#000000" transform="translate(0,0)"/>
<path d="" fill="#000000" transform="translate(0,0)"/>
<path d="" fill="#000000" transform="translate(0,0)"/>
<path d="" fill="#000000" transform="translate(0,0)"/>
<path d="" fill="#000000" transform="translate(0,0)"/>
<path d="" fill="#000000" transform="translate(0,0)"/>
<path d="" fill="#000000" transform="translate(0,0)"/>
<path d="" fill="#000000" transform="translate(0,0)"/>
<path d="" fill="#000000" transform="translate(0,0)"/>
<path d="" fill="#000000" transform="translate(0,0)"/>
<path d="" fill="#000000" transform="translate(0,0)"/>
<path d="" fill="#000000" transform="translate(0,0)"/>
<path d="" fill="#000000" transform="translate(0,0)"/>
<path d="" fill="#000000" transform="translate(0,0)"/>
<path d="" fill="#000000" transform="translate(0,0)"/>
<path d="" fill="#000000" transform="translate(0,0)"/>
<path d="" fill="#000000" transform="translate(0,0)"/>
<path d="" fill="#000000" transform="translate(0,0)"/>
<path d="" fill="#000000" transform="translate(0,0)"/>
<path d="" fill="#000000" transform="translate(0,0)"/>
<path d="" fill="#000000" transform="translate(0,0)"/>
<path d="" fill="#000000" transform="translate(0,0)"/>
<path d="" fill="#000000" transform="translate(0,0)"/>
<path d="" fill="#000000" transform="translate(0,0)"/>
<path d="" fill="#000000" transform="translate(0,0)"/>
<path d="" fill="#000000" transform="translate(0,0)"/>
<path d="" fill="#000000" transform="translate(0,0)"/>
<path d="" fill="#000000" transform="translate(0,0)"/>
<path d="" fill="#000000" transform="translate(0,0)"/>
<path d="" fill="#000000" transform="translate(0,0)"/>
<path d="" fill="#000000" transform="translate(0,0)"/>
<path d="" fill="#000000" transform="translate(0,0)"/>
<path d="" fill="#000000" transform="translate(0,0)"/>
<path d="" fill="#000000" transform="translate(0,0)"/>
<path d="" fill="#000000" transform="translate(0,0)"/>
<path d="" fill="#000000" transform="translate(0,0)"/>
<path d="" fill="#000000" transform="translate(0,0)"/>
<path d="" fill="#000000" transform="translate(0,0)"/>
<path d="" fill="#000000" transform="translate(0,0)"/>
<path d="" fill="#000000" transform="translate(0,0)"/>
<path d="" fill="#000000" transform="translate(0,0)"/>
<path d="" fill="#000000" transform="translate(0,0)"/>
<path d="" fill="#000000" transform="translate(0,0)"/>
<path d="" fill="#000000" transform="translate(0,0)"/>
<path d="" fill="#000000" transform="translate(0,0)"/>
<path d="" fill="#000000" transform="translate(0,0)"/>
<path d="" fill="#000000" transform="translate(0,0)"/>
<path d="" fill="#000000" transform="translate(0,0)"/>
<path d="" fill="#000000" transform="translate(0,0)"/>
<path d="" fill="#000000" transform="translate(0,0)"/>
<path d="" fill="#000000" transform="translate(0,0)"/>
<path d="" fill="#000000" transform="translate(0,0)"/>
<path d="" fill="#000000" transform="translate(0,0)"/>
<path d="" fill="#000000" transform="translate(0,0)"/>
<path d="" fill="#000000" transform="translate(0,0)"/>
<path d="" fill="#000000" transform="translate(0,0)"/>
<path d="" fill="#000000" transform="translate(0,0)"/>
<path d="" fill="#000000" transform="translate(0,0)"/>
<path d="" fill="#000000" transform="translate(0,0)"/>
<path d="" fill="#000000" transform="translate(0,0)"/>
<path d="" fill="#000000" transform="translate(0,0)"/>
<path d="" fill="#000000" transform="translate(0,0)"/>
<path d="" fill="#000000" transform="translate(0,0)"/>
<path d="" fill="#000000" transform="translate(0,0)"/>
<path d="" fill="#000000" transform="translate(0,0)"/>
<path d="" fill="#000000" transform="translate(0,0)"/>
<path d="" fill="#000000" transform="translate(0,0)"/>
<path d="" fill="#000000" transform="translate(0,0)"/>
<path d="" fill="#000000" transform="translate(0,0)"/>
<path d="" fill="#000000" transform="translate(0,0)"/>
<path d="" fill="#000000" transform="translate(0,0)"/>
<path d="" fill="#000000" transform="translate(0,0)"/>
<path d="" fill="#000000" transform="translate(0,0)"/>
<path d="" fill="#000000" transform="translate(0,0)"/>
<path d="" fill="#000000" transform="translate(0,0)"/>
<path d="" fill="#000000" transform="translate(0,0)"/>
<path d="" fill="#000000" transform="translate(0,0)"/>
<path d="" fill="#000000" transform="translate(0,0)"/>
<path d="" fill="#000000" transform="translate(0,0)"/>
<path d="" fill="#000000" transform="translate(0,0)"/>
<path d="" fill="#000000" transform="translate(0,0)"/>
<path d="" fill="#000000" transform="translate(0,0)"/>
<path d="" fill="#000000" transform="translate(0,0)"/>
<path d="" fill="#000000" transform="translate(0,0)"/>
<path d="" fill="#000000" transform="translate(0,0)"/>
<path d="" fill="#000000" transform="translate(0,0)"/>
<path d="" fill="#000000" transform="translate(0,0)"/>
<path d="" fill="#000000" transform="translate(0,0)"/>
<path d="" fill="#000000" transform="translate(0,0)"/>
<path d="" fill="#000000" transform="translate(0,0)"/>
<path d="" fill="#000000" transform="translate(0,0)"/>
<path d="" fill="#000000" transform="translate(0,0)"/>
<path d="" fill="#000000" transform="translate(0,0)"/>
<path d="" fill="#000000" transform="translate(0,0)"/>
<path d="" fill="#000000" transform="translate(0,0)"/>
<path d="" fill="#000000" transform="translate(0,0)"/>
<path d="" fill="#000000" transform="translate(0,0)"/>
<path d="" fill="#000000" transform="translate(0,0)"/>
<path d="" fill="#000000" transform="translate(0,0)"/>
<path d="" fill="#000000" transform="translate(0,0)"/>
<path d="" fill="#000000" transform="translate(0,0)"/>
<path d="" fill="#000000" transform="translate(0,0)"/>
<path d="" fill="#000000" transform="translate(0,0)"/>
<path d="" fill="#000000" transform="translate(0,0)"/>
<path d="" fill="#000000" transform="translate(0,0)"/>
<path d="" fill="#000000" transform="translate(0,0)"/>
<path d="" fill="#000000" transform="translate(0,0)"/>
<path d="" fill="#000000" transform="translate(0,0)"/>
<path d="" fill="#000000" transform="translate(0,0)"/>
<path d="" fill="#000000" transform="translate(0,0)"/>
<path d="" fill="#000000" transform="translate(0,0)"/>
<path d="" fill="#000000" transform="translate(0,0)"/>
<path d="" fill="#000000" transform="translate(0,0)"/>
<path d="" fill="#000000" transform="translate(0,0)"/>
<path d="" fill="#000000" transform="translate(0,0)"/>
<path d="" fill="#000000" transform="translate(0,0)"/>
<path d="" fill="#000000" transform="translate(0,0)"/>
<path d="" fill="#000000" transform="translate(0,0)"/>
<path d="" fill="#000000" transform="translate(0,0)"/>
<path d="" fill="#000000" transform="translate(0,0)"/>
<path d="" fill="#000000" transform="translate(0,0)"/>
<path d="" fill="#000000" transform="translate(0,0)"/>
<path d="" fill="#000000" transform="translate(0,0)"/>
<path d="" fill="#000000" transform="translate(0,0)"/>
<path d="" fill="#000000" transform="translate(0,0)"/>
<path d="" fill="#000000" transform="translate(0,0)"/>
<path d="" fill="#000000" transform="translate(0,0)"/>
<path d="" fill="#000000" transform="translate(0,0)"/>
<path d="" fill="#000000" transform="translate(0,0)"/>
<path d="" fill="#000000" transform="translate(0,0)"/>
<path d="" fill="#000000" transform="translate(0,0)"/>
<path d="" fill="#000000" transform="translate(0,0)"/>
<path d="" fill="#000000" transform="translate(0,0)"/>
<path d="" fill="#000000" transform="translate(0,0)"/>
<path d="" fill="#000000" transform="translate(0,0)"/>
<path d="" fill="#000000" transform="translate(0,0)"/>
<path d="" fill="#000000" transform="translate(0,0)"/>
<path d="" fill="#000000" transform="translate(0,0)"/>
<path d="" fill="#000000" transform="translate(0,0)"/>
<path d="" fill="#000000" transform="translate(0,0)"/>
<path d="" fill="#000000" transform="translate(0,0)"/>
<path d="" fill="#000000" transform="translate(0,0)"/>
<path d="" fill="#000000" transform="translate(0,0)"/>
<path d="" fill="#000000" transform="translate(0,0)"/>
<path d="" fill="#000000" transform="translate(0,0)"/>
<path d="" fill="#000000" transform="translate(0,0)"/>
<path d="" fill="#000000" transform="translate(0,0)"/>
<path d="" fill="#000000" transform="translate(0,0)"/>
<path d="" fill="#000000" transform="translate(0,0)"/>
<path d="" fill="#000000" transform="translate(0,0)"/>
<path d="" fill="#000000" transform="translate(0,0)"/>
<path d="" fill="#000000" transform="translate(0,0)"/>
<path d="" fill="#000000" transform="translate(0,0)"/>
<path d="" fill="#000000" transform="translate(0,0)"/>
<path d="" fill="#000000" transform="translate(0,0)"/>
<path d="" fill="#000000" transform="translate(0,0)"/>
<path d="" fill="#000000" transform="translate(0,0)"/>
<path d="" fill="#000000" transform="translate(0,0)"/>
<path d="" fill="#000000" transform="translate(0,0)"/>
<path d="" fill="#000000" transform="translate(0,0)"/>
<path d="" fill="#000000" transform="translate(0,0)"/>
<path d="" fill="#000000" transform="translate(0,0)"/>
<path d="" fill="#000000" transform="translate(0,0)"/>
<path d="" fill="#000000" transform="translate(0,0)"/>
<path d="" fill="#000000" transform="translate(0,0)"/>
<path d="" fill="#000000" transform="translate(0,0)"/>
<path d="" fill="#000000" transform="translate(0,0)"/>
<path d="" fill="#000000" transform="translate(0,0)"/>
<path d="" fill="#000000" transform="translate(0,0)"/>
<path d="" fill="#000000" transform="translate(0,0)"/>
<path d="" fill="#000000" transform="translate(0,0)"/>
<path d="" fill="#000000" transform="translate(0,0)"/>
<path d="" fill="#000000" transform="translate(0,0)"/>
<path d="" fill="#000000" transform="translate(0,0)"/>
<path d="" fill="#000000" transform="translate(0,0)"/>
<path d="" fill="#000000" transform="translate(0,0)"/>
<path d="" fill="#000000" transform="translate(0,0)"/>
<path d="" fill="#000000" transform="translate(0,0)"/>
<path d="" fill="#000000" transform="translate(0,0)"/>
<path d="" fill="#000000" transform="translate(0,0)"/>
<path d="" fill="#000000" transform="translate(0,0)"/>
<path d="" fill="#000000" transform="translate(0,0)"/>
<path d="" fill="#000000" transform="translate(0,0)"/>
<path d="" fill="#000000" transform="translate(0,0)"/>
<path d="" fill="#000000" transform="translate(0,0)"/>
<path d="" fill="#000000" transform="translate(0,0)"/>
<path d="" fill="#000000" transform="translate(0,0)"/>
<path d="" fill="#000000" transform="translate(0,0)"/>
<path d="" fill="#000000" transform="translate(0,0)"/>
<path d="" fill="#000000" transform="translate(0,0)"/>
<path d="" fill="#000000" transform="translate(0,0)"/>
<path d="" fill="#000000" transform="translate(0,0)"/>
<path d="" fill="#000000" transform="translate(0,0)"/>
<path d="" fill="#000000" transform="translate(0,0)"/>
<path d="" fill="#000000" transform="translate(0,0)"/>
<path d="" fill="#000000" transform="translate(0,0)"/>
<path d="" fill="#000000" transform="translate(0,0)"/>
<path d="" fill="#000000" transform="translate(0,0)"/>
<path d="" fill="#000000" transform="translate(0,0)"/>
<path d="" fill="#000000" transform="translate(0,0)"/>
<path d="" fill="#000000" transform="translate(0,0)"/>
<path d="" fill="#000000" transform="translate(0,0)"/>
<path d="" fill="#000000" transform="translate(0,0)"/>
<path d="" fill="#000000" transform="translate(0,0)"/>
<path d="" fill="#000000" transform="translate(0,0)"/>
<path d="" fill="#000000" transform="translate(0,0)"/>
<path d="" fill="#000000" transform="translate(0,0)"/>
<path d="" fill="#000000" transform="translate(0,0)"/>
<path d="" fill="#000000" transform="translate(0,0)"/>
<path d="" fill="#000000" transform="translate(0,0)"/>
<path d="" fill="#000000" transform="translate(0,0)"/>
<path d="" fill="#000000" transform="translate(0,0)"/>
<path d="" fill="#000000" transform="translate(0,0)"/>
<path d="" fill="#000000" transform="translate(0,0)"/>
<path d="" fill="#000000" transform="translate(0,0)"/>
<path d="" fill="#000000" transform="translate(0,0)"/>
<path d="" fill="#000000" transform="translate(0,0)"/>
<path d="" fill="#000000" transform="translate(0,0)"/>
<path d="" fill="#000000" transform="translate(0,0)"/>
<path d="" fill="#000000" transform="translate(0,0)"/>
<path d="" fill="#000000" transform="translate(0,0)"/>
<path d="" fill="#000000" transform="translate(0,0)"/>
<path d="" fill="#000000" transform="translate(0,0)"/>
<path d="" fill="#000000" transform="translate(0,0)"/>
<path d="" fill="#000000" transform="translate(0,0)"/>
<path d="" fill="#000000" transform="translate(0,0)"/>
<path d="" fill="#000000" transform="translate(0,0)"/>
<path d="" fill="#000000" transform="translate(0,0)"/>
<path d="" fill="#000000" transform="translate(0,0)"/>
<path d="" fill="#000000" transform="translate(0,0)"/>
<path d="" fill="#000000" transform="translate(0,0)"/>
<path d="" fill="#000000" transform="translate(0,0)"/>
<path d="" fill="#000000" transform="translate(0,0)"/>
<path d="" fill="#000000" transform="translate(0,0)"/>
<path d="" fill="#000000" transform="translate(0,0)"/>
<path d="" fill="#000000" transform="translate(0,0)"/>
<path d="" fill="#000000" transform="translate(0,0)"/>
<path d="" fill="#000000" transform="translate(0,0)"/>
<path d="" fill="#000000" transform="translate(0,0)"/>
<path d="" fill="#000000" transform="translate(0,0)"/>
<path d="" fill="#000000" transform="translate(0,0)"/>
<path d="" fill="#000000" transform="translate(0,0)"/>
<path d="" fill="#000000" transform="translate(0,0)"/>
<path d="" fill="#000000" transform="translate(0,0)"/>
<path d="" fill="#000000" transform="translate(0,0)"/>
<path d="" fill="#000000" transform="translate(0,0)"/>
<path d="" fill="#000000" transform="translate(0,0)"/>
<path d="" fill="#000000" transform="translate(0,0)"/>
<path d="" fill="#000000" transform="translate(0,0)"/>
<path d="" fill="#000000" transform="translate(0,0)"/>
<path d="" fill="#000000" transform="translate(0,0)"/>
<path d="" fill="#000000" transform="translate(0,0)"/>
<path d="" fill="#000000" transform="translate(0,0)"/>
<path d="" fill="#000000" transform="translate(0,0)"/>
<path d="" fill="#000000" transform="translate(0,0)"/>
<path d="" fill="#000000" transform="translate(0,0)"/>
<path d="" fill="#000000" transform="translate(0,0)"/>
<path d="" fill="#000000" transform="translate(0,0)"/>
<path d="" fill="#000000" transform="translate(0,0)"/>
<path d="" fill="#000000" transform="translate(0,0)"/>
<path d="" fill="#000000" transform="translate(0,0)"/>
<path d="" fill="#000000" transform="translate(0,0)"/>
<path d="" fill="#000000" transform="translate(0,0)"/>
<path d="" fill="#000000" transform="translate(0,0)"/>
<path d="" fill="#000000" transform="translate(0,0)"/>
<path d="" fill="#000000" transform="translate(0,0)"/>
<path d="" fill="#000000" transform="translate(0,0)"/>
<path d="" fill="#000000" transform="translate(0,0)"/>
<path d="" fill="#000000" transform="translate(0,0)"/>
<path d="" fill="#000000" transform="translate(0,0)"/>
<path d="" fill="#000000" transform="translate(0,0)"/>
<path d="" fill="#000000" transform="translate(0,0)"/>
<path d="" fill="#000000" transform="translate(0,0)"/>
<path d="" fill="#000000" transform="translate(0,0)"/>
<path d="" fill="#000000" transform="translate(0,0)"/>
<path d="" fill="#000000" transform="translate(0,0)"/>
<path d="" fill="#000000" transform="translate(0,0)"/>
<path d="" fill="#000000" transform="translate(0,0)"/>
<path d="" fill="#000000" transform="translate(0,0)"/>
<path d="" fill="#000000" transform="translate(0,0)"/>
<path d="" fill="#000000" transform="translate(0,0)"/>
<path d="" fill="#000000" transform="translate(0,0)"/>
<path d="" fill="#000000" transform="translate(0,0)"/>
<path d="" fill="#000000" transform="translate(0,0)"/>
<path d="" fill="#000000" transform="translate(0,0)"/>
<path d="" fill="#000000" transform="translate(0,0)"/>
<path d="" fill="#000000" transform="translate(0,0)"/>
<path d="" fill="#000000" transform="translate(0,0)"/>
<path d="" fill="#000000" transform="translate(0,0)"/>
<path d="" fill="#000000" transform="translate(0,0)"/>
<path d="" fill="#000000" transform="translate(0,0)"/>
<path d="" fill="#000000" transform="translate(0,0)"/>
<path d="" fill="#000000" transform="translate(0,0)"/>
<path d="" fill="#000000" transform="translate(0,0)"/>
<path d="" fill="#000000" transform="translate(0,0)"/>
<path d="" fill="#000000" transform="translate(0,0)"/>
<path d="" fill="#000000" transform="translate(0,0)"/>
<path d="" fill="#000000" transform="translate(0,0)"/>
<path d="" fill="#000000" transform="translate(0,0)"/>
<path d="" fill="#000000" transform="translate(0,0)"/>
<path d="" fill="#000000" transform="translate(0,0)"/>
<path d="" fill="#000000" transform="translate(0,0)"/>
<path d="" fill="#000000" transform="translate(0,0)"/>
<path d="" fill="#000000" transform="translate(0,0)"/>
<path d="" fill="#000000" transform="translate(0,0)"/>
<path d="" fill="#000000" transform="translate(0,0)"/>
<path d="" fill="#000000" transform="translate(0,0)"/>
<path d="" fill="#000000" transform="translate(0,0)"/>
<path d="" fill="#000000" transform="translate(0,0)"/>
<path d="" fill="#000000" transform="translate(0,0)"/>
<path d="" fill="#000000" transform="translate(0,0)"/>
<path d="" fill="#000000" transform="translate(0,0)"/>
<path d="" fill="#000000" transform="translate(0,0)"/>
<path d="" fill="#000000" transform="translate(0,0)"/>
<path d="" fill="#000000" transform="translate(0,0)"/>
<path d="" fill="#000000" transform="translate(0,0)"/>
<path d="" fill="#000000" transform="translate(0,0)"/>
<path d="" fill="#000000" transform="translate(0,0)"/>
<path d="" fill="#000000" transform="translate(0,0)"/>
<path d="" fill="#000000" transform="translate(0,0)"/>
<path d="" fill="#000000" transform="translate(0,0)"/>
<path d="" fill="#000000" transform="translate(0,0)"/>
<path d="" fill="#000000" transform="translate(0,0)"/>
<path d="" fill="#000000" transform="translate(0,0)"/>
<path d="" fill="#000000" transform="translate(0,0)"/>
<path d="" fill="#000000" transform="translate(0,0)"/>
<path d="" fill="#000000" transform="translate(0,0)"/>
<path d="" fill="#000000" transform="translate(0,0)"/>
<path d="" fill="#000000" transform="translate(0,0)"/>
<path d="" fill="#000000" transform="translate(0,0)"/>
<path d="" fill="#000000" transform="translate(0,0)"/>
<path d="" fill="#000000" transform="translate(0,0)"/>
<path d="" fill="#000000" transform="translate(0,0)"/>
<path d="" fill="#000000" transform="translate(0,0)"/>
<path d="" fill="#000000" transform="translate(0,0)"/>
<path d="" fill="#000000" transform="translate(0,0)"/>
<path d="" fill="#000000" transform="translate(0,0)"/>
<path d="" fill="#000000" transform="translate(0,0)"/>
<path d="" fill="#000000" transform="translate(0,0)"/>
<path d="" fill="#000000" transform="translate(0,0)"/>
<path d="" fill="#000000" transform="translate(0,0)"/>
<path d="" fill="#000000" transform="translate(0,0)"/>
<path d="" fill="#000000" transform="translate(0,0)"/>
<path d="" fill="#000000" transform="translate(0,0)"/>
<path d="" fill="#000000" transform="translate(0,0)"/>
<path d="" fill="#000000" transform="translate(0,0)"/>
<path d="" fill="#000000" transform="translate(0,0)"/>
<path d="" fill="#000000" transform="translate(0,0)"/>
<path d="" fill="#000000" transform="translate(0,0)"/>
<path d="" fill="#000000" transform="translate(0,0)"/>
<path d="" fill="#000000" transform="translate(0,0)"/>
<path d="" fill="#000000" transform="translate(0,0)"/>
<path d="" fill="#000000" transform="translate(0,0)"/>
<path d="" fill="#000000" transform="translate(0,0)"/>
<path d="" fill="#000000" transform="translate(0,0)"/>
<path d="" fill="#000000" transform="translate(0,0)"/>
<path d="" fill="#000000" transform="translate(0,0)"/>
<path d="" fill="#000000" transform="translate(0,0)"/>
<path d="" fill="#000000" transform="translate(0,0)"/>
<path d="" fill="#000000" transform="translate(0,0)"/>
<path d="" fill="#000000" transform="translate(0,0)"/>
<path d="" fill="#000000" transform="translate(0,0)"/>
<path d="" fill="#000000" transform="translate(0,0)"/>
<path d="" fill="#000000" transform="translate(0,0)"/>
<path d="" fill="#000000" transform="translate(0,0)"/>
<path d="" fill="#000000" transform="translate(0,0)"/>
<path d="" fill="#000000" transform="translate(0,0)"/>
<path d="" fill="#000000" transform="translate(0,0)"/>
<path d="" fill="#000000" transform="translate(0,0)"/>
<path d="" fill="#000000" transform="translate(0,0)"/>
<path d="" fill="#000000" transform="translate(0,0)"/>
<path d="" fill="#000000" transform="translate(0,0)"/>
<path d="" fill="#000000" transform="translate(0,0)"/>
<path d="" fill="#000000" transform="translate(0,0)"/>
<path d="" fill="#000000" transform="translate(0,0)"/>
<path d="" fill="#000000" transform="translate(0,0)"/>
<path d="" fill="#000000" transform="translate(0,0)"/>
<path d="" fill="#000000" transform="translate(0,0)"/>
<path d="" fill="#000000" transform="translate(0,0)"/>
<path d="" fill="#000000" transform="translate(0,0)"/>
<path d="" fill="#000000" transform="translate(0,0)"/>
<path d="" fill="#000000" transform="translate(0,0)"/>
<path d="" fill="#000000" transform="translate(0,0)"/>
<path d="" fill="#000000" transform="translate(0,0)"/>
<path d="" fill="#000000" transform="translate(0,0)"/>
<path d="" fill="#000000" transform="translate(0,0)"/>
<path d="" fill="#000000" transform="translate(0,0)"/>
<path d="" fill="#000000" transform="translate(0,0)"/>
<path d="" fill="#000000" transform="translate(0,0)"/>
<path d="" fill="#000000" transform="translate(0,0)"/>
<path d="" fill="#000000" transform="translate(0,0)"/>
<path d="" fill="#000000" transform="translate(0,0)"/>
<path d="" fill="#000000" transform="translate(0,0)"/>
<path d="" fill="#000000" transform="translate(0,0)"/>
<path d="" fill="#000000" transform="translate(0,0)"/>
<path d="" fill="#000000" transform="translate(0,0)"/>
<path d="" fill="#000000" transform="translate(0,0)"/>
<path d="" fill="#000000" transform="translate(0,0)"/>
<path d="" fill="#000000" transform="translate(0,0)"/>
<path d="" fill="#000000" transform="translate(0,0)"/>
<path d="" fill="#000000" transform="translate(0,0)"/>
<path d="" fill="#000000" transform="translate(0,0)"/>
<path d="" fill="#000000" transform="translate(0,0)"/>
<path d="" fill="#000000" transform="translate(0,0)"/>
<path d="" fill="#000000" transform="translate(0,0)"/>
<path d="" fill="#000000" transform="translate(0,0)"/>
<path d="" fill="#000000" transform="translate(0,0)"/>
<path d="" fill="#000000" transform="translate(0,0)"/>
<path d="" fill="#000000" transform="translate(0,0)"/>
<path d="" fill="#000000" transform="translate(0,0)"/>
<path d="" fill="#000000" transform="translate(0,0)"/>
<path d="" fill="#000000" transform="translate(0,0)"/>
<path d="" fill="#000000" transform="translate(0,0)"/>
<path d="" fill="#000000" transform="translate(0,0)"/>
<path d="" fill="#000000" transform="translate(0,0)"/>
<path d="" fill="#000000" transform="translate(0,0)"/>
<path d="" fill="#000000" transform="translate(0,0)"/>
<path d="" fill="#000000" transform="translate(0,0)"/>
<path d="" fill="#000000" transform="translate(0,0)"/>
<path d="" fill="#000000" transform="translate(0,0)"/>
<path d="" fill="#000000" transform="translate(0,0)"/>
<path d="" fill="#000000" transform="translate(0,0)"/>
<path d="" fill="#000000" transform="translate(0,0)"/>
<path d="" fill="#000000" transform="translate(0,0)"/>
<path d="" fill="#000000" transform="translate(0,0)"/>
<path d="" fill="#000000" transform="translate(0,0)"/>
<path d="" fill="#000000" transform="translate(0,0)"/>
<path d="" fill="#000000" transform="translate(0,0)"/>
<path d="" fill="#000000" transform="translate(0,0)"/>
<path d="" fill="#000000" transform="translate(0,0)"/>
<path d="" fill="#000000" transform="translate(0,0)"/>
<path d="" fill="#000000" transform="translate(0,0)"/>
<path d="" fill="#000000" transform="translate(0,0)"/>
<path d="" fill="#000000" transform="translate(0,0)"/>
<path d="" fill="#000000" transform="translate(0,0)"/>
<path d="" fill="#000000" transform="translate(0,0)"/>
<path d="" fill="#000000" transform="translate(0,0)"/>
<path d="" fill="#000000" transform="translate(0,0)"/>
<path d="" fill="#000000" transform="translate(0,0)"/>
<path d="" fill="#000000" transform="translate(0,0)"/>
<path d="" fill="#000000" transform="translate(0,0)"/>
<path d="" fill="#000000" transform="translate(0,0)"/>
<path d="" fill="#000000" transform="translate(0,0)"/>
<path d="" fill="#000000" transform="translate(0,0)"/>
<path d="" fill="#000000" transform="translate(0,0)"/>
<path d="" fill="#000000" transform="translate(0,0)"/>
<path d="" fill="#000000" transform="translate(0,0)"/>
<path d="" fill="#000000" transform="translate(0,0)"/>
<path d="" fill="#000000" transform="translate(0,0)"/>
<path d="" fill="#000000" transform="translate(0,0)"/>
<path d="" fill="#000000" transform="translate(0,0)"/>
<path d="" fill="#000000" transform="translate(0,0)"/>
<path d="" fill="#000000" transform="translate(0,0)"/>
<path d="" fill="#000000" transform="translate(0,0)"/>
<path d="" fill="#000000" transform="translate(0,0)"/>
<path d="" fill="#000000" transform="translate(0,0)"/>
<path d="" fill="#000000" transform="translate(0,0)"/>
<path d="" fill="#000000" transform="translate(0,0)"/>
<path d="" fill="#000000" transform="translate(0,0)"/>
<path d="" fill="#000000" transform="translate(0,0)"/>
<path d="" fill="#000000" transform="translate(0,0)"/>
<path d="" fill="#000000" transform="translate(0,0)"/>
<path d="" fill="#000000" transform="translate(0,0)"/>
<path d="" fill="#000000" transform="translate(0,0)"/>
<path d="" fill="#000000" transform="translate(0,0)"/>
<path d="" fill="#000000" transform="translate(0,0)"/>
<path d="" fill="#000000" transform="translate(0,0)"/>
<path d="" fill="#000000" transform="translate(0,0)"/>
<path d="" fill="#000000" transform="translate(0,0)"/>
<path d="" fill="#000000" transform="translate(0,0)"/>
<path d="" fill="#000000" transform="translate(0,0)"/>
<path d="" fill="#000000" transform="translate(0,0)"/>
<path d="" fill="#000000" transform="translate(0,0)"/>
<path d="" fill="#000000" transform="translate(0,0)"/>
<path d="" fill="#000000" transform="translate(0,0)"/>
<path d="" fill="#000000" transform="translate(0,0)"/>
<path d="" fill="#000000" transform="translate(0,0)"/>
<path d="" fill="#000000" transform="translate(0,0)"/>
<path d="" fill="#000000" transform="translate(0,0)"/>
<path d="" fill="#000000" transform="translate(0,0)"/>
<path d="" fill="#000000" transform="translate(0,0)"/>
<path d="" fill="#000000" transform="translate(0,0)"/>
<path d="" fill="#000000" transform="translate(0,0)"/>
<path d="" fill="#000000" transform="translate(0,0)"/>
<path d="" fill="#000000" transform="translate(0,0)"/>
<path d="" fill="#000000" transform="translate(0,0)"/>
<path d="" fill="#000000" transform="translate(0,0)"/>
<path d="" fill="#000000" transform="translate(0,0)"/>
<path d="" fill="#000000" transform="translate(0,0)"/>
<path d="" fill="#000000" transform="translate(0,0)"/>
<path d="" fill="#000000" transform="translate(0,0)"/>
<path d="" fill="#000000" transform="translate(0,0)"/>
<path d="" fill="#000000" transform="translate(0,0)"/>
<path d="" fill="#000000" transform="translate(0,0)"/>
<path d="" fill="#000000" transform="translate(0,0)"/>
<path d="" fill="#000000" transform="translate(0,0)"/>
<path d="" fill="#000000" transform="translate(0,0)"/>
<path d="" fill="#000000" transform="translate(0,0)"/>
<path d="" fill="#000000" transform="translate(0,0)"/>
<path d="" fill="#000000" transform="translate(0,0)"/>
<path d="" fill="#000000" transform="translate(0,0)"/>
<path d="" fill="#000000" transform="translate(0,0)"/>
<path d="" fill="#000000" transform="translate(0,0)"/>
<path d="" fill="#000000" transform="translate(0,0)"/>
<path d="" fill="#000000" transform="translate(0,0)"/>
<path d="" fill="#000000" transform="translate(0,0)"/>
<path d="" fill="#000000" transform="translate(0,0)"/>
<path d="" fill="#000000" transform="translate(0,0)"/>
<path d="" fill="#000000" transform="translate(0,0)"/>
<path d="" fill="#000000" transform="translate(0,0)"/>
<path d="" fill="#000000" transform="translate(0,0)"/>
<path d="" fill="#000000" transform="translate(0,0)"/>
<path d="" fill="#000000" transform="translate(0,0)"/>
<path d="" fill="#000000" transform="translate(0,0)"/>
<path d="" fill="#000000" transform="translate(0,0)"/>
<path d="" fill="#000000" transform="translate(0,0)"/>
<path d="" fill="#000000" transform="translate(0,0)"/>
<path d="" fill="#000000" transform="translate(0,0)"/>
<path d="" fill="#000000" transform="translate(0,0)"/>
<path d="" fill="#000000" transform="translate(0,0)"/>
<path d="" fill="#000000" transform="translate(0,0)"/>
<path d="" fill="#000000" transform="translate(0,0)"/>
<path d="" fill="#000000" transform="translate(0,0)"/>
<path d="" fill="#000000" transform="translate(0,0)"/>
<path d="" fill="#000000" transform="translate(0,0)"/>
<path d="" fill="#000000" transform="translate(0,0)"/>
<path d="" fill="#000000" transform="translate(0,0)"/>
<path d="" fill="#000000" transform="translate(0,0)"/>
<path d="" fill="#000000" transform="translate(0,0)"/>
<path d="" fill="#000000" transform="translate(0,0)"/>
<path d="" fill="#000000" transform="translate(0,0)"/>
<path d="" fill="#000000" transform="translate(0,0)"/>
<path d="" fill="#000000" transform="translate(0,0)"/>
<path d="" fill="#000000" transform="translate(0,0)"/>
<path d="" fill="#000000" transform="translate(0,0)"/>
<path d="" fill="#000000" transform="translate(0,0)"/>
<path d="" fill="#000000" transform="translate(0,0)"/>
<path d="" fill="#000000" transform="translate(0,0)"/>
<path d="" fill="#000000" transform="translate(0,0)"/>
<path d="" fill="#000000" transform="translate(0,0)"/>
<path d="" fill="#000000" transform="translate(0,0)"/>
<path d="" fill="#000000" transform="translate(0,0)"/>
<path d="" fill="#000000" transform="translate(0,0)"/>
<path d="" fill="#000000" transform="translate(0,0)"/>
<path d="" fill="#000000" transform="translate(0,0)"/>
<path d="" fill="#000000" transform="translate(0,0)"/>
<path d="" fill="#000000" transform="translate(0,0)"/>
</svg>
